<svg width="135" height="36" viewBox="0 0 135 36" xmlns="http://www.w3.org/2000/svg" xmlns:xlink="http://www.w3.org/1999/xlink"><title>bg-pw-input</title><defs><path d="M2 0h131a2 2 0 0 1 2 2v32a2 2 0 0 1-2 2H2a2 2 0 0 1-2-2V2a2 2 0 0 1 2-2z" id="a"/></defs><g fill="none" fill-rule="evenodd"><use fill="#FFF" xlink:href="#a"/><path d="M2 .5A1.5 1.5 0 0 0 .5 2v32A1.5 1.5 0 0 0 2 35.5h131a1.5 1.5 0 0 0 1.5-1.5V2A1.5 1.5 0 0 0 133 .5H2z"/><path fill="#E8EAEB" d="M25 11h1v14h-1zM46 11h1v14h-1zM67 11h1v14h-1zM88 11h1v14h-1zM109 11h1v14h-1z"/></g></svg>