<?xml version="1.0" encoding="UTF-8"?>
<svg width="18px" height="18px" viewBox="0 0 18 18" version="1.1" xmlns="http://www.w3.org/2000/svg" xmlns:xlink="http://www.w3.org/1999/xlink">
    <!-- Generator: Sketch 61.1 (89650) - https://sketch.com -->
    <title>list/file_normal copy备份 11</title>
    <desc>Created with Sketch.</desc>
    <g id="视觉稿" stroke="none" stroke-width="1" fill="none" fill-rule="evenodd">
        <g id="重复文件备份" transform="translate(-260.000000, -538.000000)">
            <rect fill="#FFFFFF" x="0" y="0" width="1600" height="900"></rect>
            <g id="编组-2" transform="translate(240.000000, 519.000000)">
                <g id="list/file_normal-copy备份-11">
                    <rect id="bg" fill="#FFFFFF" x="0" y="0" width="1360" height="56"></rect>
                    <rect id="line" fill="#F0F8FF" x="12" y="0" width="1288" height="56" rx="4"></rect>
                    <g id="Control/Checkbox/Selected-Blue" transform="translate(20.000000, 19.000000)">
                        <rect id="bg" fill="#308EFF" x="0" y="0" width="18" height="18" rx="3"></rect>
                        <path d="M4,4 C4.55228475,4 5,4.44771525 5,5 L5,9 L14,9 C14.5522847,9 15,9.44771525 15,10 C15,10.5522847 14.5522847,11 14,11 L4,11 L4,11 C3.44771525,11 3,10.5522847 3,10 L3,5 C3,4.44771525 3.44771525,4 4,4 Z" id="√" fill="#FFFFFF" transform="translate(9.000000, 7.500000) rotate(-45.000000) translate(-9.000000, -7.500000) "></path>
                    </g>
                </g>
            </g>
        </g>
    </g>
</svg>