<?xml version="1.0" encoding="UTF-8"?>
<svg width="19px" height="19px" viewBox="0 0 19 19" version="1.1" xmlns="http://www.w3.org/2000/svg" xmlns:xlink="http://www.w3.org/1999/xlink">
    <!-- Generator: Sketch 63.1 (92452) - https://sketch.com -->
    <title>编组</title>
    <desc>Created with Sketch.</desc>
    <g id="Page-7" stroke="none" stroke-width="1" fill="none" fill-rule="evenodd">
        <g id="清理界面-视觉" transform="translate(-400.000000, -292.000000)" fill="#555555" fill-rule="nonzero">
            <g id="编组-21" transform="translate(400.000000, 244.000000)">
                <g id="编组-20" transform="translate(0.000000, 48.000000)">
                    <g id="编组">
                        <path d="M9.5,19 C4.25329488,19 0,14.7467051 0,9.5 C0,4.25329488 4.25329488,0 9.5,0 C14.7467051,0 19,4.25329488 19,9.5 C18.9940572,14.7442416 14.7442416,18.9940572 9.5,19 Z M9.5,0.91251352 C4.75726218,0.91251352 0.91251352,4.75726218 0.91251352,9.5 C0.91251352,14.2427378 4.75726218,18.0874865 9.5,18.0874865 C14.2427378,18.0874865 18.0874865,14.2427378 18.0874865,9.5 C18.0821097,4.75949112 14.2405089,0.917890339 9.5,0.91251352 Z M13.2394054,14.4461625 C13.1184349,14.4462996 13.0023901,14.3982556 12.9169189,14.3126486 L8.51251352,9.91081082 L8.51251352,4.31967568 C8.52076871,4.07364785 8.72260399,3.87847135 8.96877027,3.87847135 C9.21493655,3.87847135 9.41677183,4.07364785 9.42502702,4.31967568 L9.42502702,9.53081082 L13.5613784,13.6676757 C13.6912429,13.7982071 13.7299776,13.9939767 13.6596055,14.1641267 C13.5892335,14.3342766 13.4235325,14.445494 13.2394054,14.4461625 L13.2394054,14.4461625 Z" id="形状"></path>
                    </g>
                </g>
            </g>
        </g>
    </g>
</svg>