<?xml version="1.0" encoding="UTF-8"?>
<svg width="18px" height="18px" viewBox="0 0 18 18" version="1.1" xmlns="http://www.w3.org/2000/svg" xmlns:xlink="http://www.w3.org/1999/xlink">
    <!-- Generator: Sketch 55.2 (78181) - https://sketchapp.com -->
    <title>图标</title>
    <desc>Created with Sketch.</desc>
    <g id="页面1" stroke="none" stroke-width="1" fill="none" fill-rule="evenodd">
        <g id="Artboard-Copy-20复制" transform="translate(-576.000000, -81.000000)">
            <g id="Group-4-Copy-2" transform="translate(-7.000000, 0.000000)">
                <g id="Group-4" transform="translate(0.000000, 60.000000)">
                    <g id="Action-Bar" transform="translate(284.000000, 0.000000)">
                        <g id="Group-26" transform="translate(50.000000, 13.000000)">
                            <g id="创建按钮-copy-2" transform="translate(232.000000, 0.000000)">
                                <g id="Bar/Action-Bar/↳Elements/icons/recycle复制-2" transform="translate(16.000000, 7.000000)">
                                    <g id="ic_shareoff_nor">
                                        <rect id="Rectangle-5" x="0" y="0" width="20" height="20"></rect>
                                        <path d="M10,19 C5.02943725,19 1,14.9705627 1,10 C1,5.02943725 5.02943725,1 10,1 C14.9705627,1 19,5.02943725 19,10 C19,14.9705627 14.9705627,19 10,19 Z M10,17 C13.8659932,17 17,13.8659932 17,10 C17,6.13400675 13.8659932,3 10,3 C6.13400675,3 3,6.13400675 3,10 C3,13.8659932 6.13400675,17 10,17 Z M11.4142136,10 L13.5355339,12.1213203 L12.1213203,13.5355339 L10,11.4142136 L7.87867966,13.5355339 L6.46446609,12.1213203 L8.58578644,10 L6.46446609,7.87867966 L7.87867966,6.46446609 L10,8.58578644 L12.1213203,6.46446609 L13.5355339,7.87867966 L11.4142136,10 Z" fill="#E04242"></path>
                                    </g>
                                </g>
                            </g>
                        </g>
                    </g>
                </g>
            </g>
        </g>
    </g>
</svg>