<svg xmlns="http://www.w3.org/2000/svg" xmlns:xlink="http://www.w3.org/1999/xlink" width="100" height="80" viewBox="0 0 100 80">
    <defs>
        <path id="uu8ylfpd5a" d="M0 2C0 .895.895 0 2 0h25.039c.607 0 1.182.276 1.561.75L32 5 64 5c1.105 0 2 .895 2 2v51c0 1.105-.895 2-2 2H2c-1.105 0-2-.895-2-2V2z"/>
        <path id="6a3gd5m5tb" d="M0 2C0 .895.895 0 2 0h25.039c.607 0 1.182.276 1.561.75L32 5 64 5c1.105 0 2 .895 2 2v49c0 1.105-.895 2-2 2H2c-1.105 0-2-.895-2-2V2z"/>
    </defs>
    <g fill="none" fill-rule="evenodd">
        <g>
            <g>
                <g>
                    <g>
                        <path d="M0 0H100V80H0z" transform="translate(-48 -56) translate(38 47) translate(10 9)"/>
                        <g transform="translate(-48 -56) translate(38 47) translate(10 9) translate(17 9)">
                            <use fill="#5C99E7" xlink:href="#uu8ylfpd5a"/>
                            <mask id="fh226pwa4c" fill="#fff">
                                <use xlink:href="#6a3gd5m5tb"/>
                            </mask>
                            <use fill="#6AABFF" xlink:href="#6a3gd5m5tb"/>
                            <g mask="url(#fh226pwa4c)">
                                <g transform="translate(16 20)">
                                    <rect width="34" height="9" stroke="#4C94F0" stroke-width="3" rx="1"/>
                                    <rect width="24" height="21" x="5" y="9" stroke="#4C94F0" stroke-width="3" rx="1"/>
                                    <path fill="#4C94F0" d="M15 15H19V19H15zM11 19L23 19 17 25z"/>
                                </g>
                            </g>
                            <path fill="#4C94F0" d="M0 0L66 0 66 13 0 13z" mask="url(#fh226pwa4c)"/>
                        </g>
                    </g>
                </g>
            </g>
        </g>
    </g>
</svg>
