<?xml version="1.0" encoding="UTF-8"?>
<svg width="200px" height="32px" viewBox="0 0 200 32" version="1.1" xmlns="http://www.w3.org/2000/svg" xmlns:xlink="http://www.w3.org/1999/xlink">
    <!-- Generator: Sketch 48.2 (47327) - http://www.bohemiancoding.com/sketch -->
    <title>Page 1</title>
    <desc>Created with Sketch.</desc>
    <defs>
        <polygon id="path-1" points="0.000106666667 0.230115556 42.4029511 0.230115556 42.4029511 31.6444444 0.000106666667 31.6444444"></polygon>
        <polygon id="path-3" points="0.000106666667 0.230115556 42.4029511 0.230115556 42.4029511 31.6444444 0.000106666667 31.6444444"></polygon>
        <polygon id="path-5" points="0 31.7699911 199.8336 31.7699911 199.8336 0.355591111 0 0.355591111"></polygon>
    </defs>
    <g id="Page-1" stroke="none" stroke-width="1" fill="none" fill-rule="evenodd">
        <g>
            <g id="Group-3" transform="translate(0.000000, 0.125547)">
                <mask id="mask-2" fill="white">
                    <use xlink:href="#path-1"></use>
                </mask>
                <g id="Clip-2"></g>
                <path d="M30.3848178,27.9293156 C30.72224,27.65376 31.0479289,27.3646933 31.3597511,27.0610489 C34.3186844,24.1782044 35.9485511,20.2279822 35.9485511,15.9371378 C35.9485511,15.4902044 35.9307733,15.0486044 35.8980622,14.6119822 C37.6097067,15.98656 38.7083733,18.0939378 38.7083733,20.4548267 C38.7083733,24.86336 35.5400178,27.6775822 30.3848178,27.9293156 Z M14.0068622,27.9499378 C10.6056178,27.9499378 7.86570667,27.1264711 6.08401778,25.5687822 C4.52064,24.2023822 3.69468444,22.2614044 3.69468444,19.9549156 C3.69468444,17.5154489 4.55904,15.39776 6.12881778,13.9922489 C7.34268444,12.90496 8.87939556,12.3271822 10.5209956,12.3271822 C10.7801956,12.3271822 11.0425956,12.3414044 11.3064178,12.37056 C13.2559289,12.5863822 14.7713067,13.5115378 15.4639289,14.9099378 C15.9723733,15.9364267 15.94464,17.0574933 15.3871289,17.9851378 C14.9537067,18.7072711 14.36384,19.1520711 13.6345956,19.30816 C12.7922844,19.4884267 11.7689956,19.2704711 11.0276622,18.7538489 L9.17770667,21.95776 C10.7257956,22.9344711 12.6568178,23.29536 14.4072178,22.92096 C16.15264,22.5479822 17.5865956,21.4990933 18.5544178,19.8877156 C19.7547733,17.8887822 19.8372622,15.4151822 18.7745067,13.2701156 C17.6409956,10.98176 15.4507733,9.40487111 12.6809956,8.84842667 C13.12864,7.86460444 13.7636622,6.99064889 14.5746844,6.25322667 C16.2258844,4.75171556 18.5458844,3.92469333 21.1069511,3.92469333 C24.1579733,3.92469333 26.9757511,5.15562667 29.0408178,7.39029333 C31.11264,9.63313778 32.2539733,12.6685156 32.2539733,15.9371378 C32.2539733,19.2224711 31.0209067,22.2333156 28.7816178,24.4142933 C26.4075733,26.7271822 23.1378844,27.9499378 19.3266844,27.9499378 L14.0068622,27.9499378 Z M34.8399289,9.87242667 C32.6397511,4.15936 27.3871289,0.230115556 21.1069511,0.230115556 C17.62464,0.230115556 14.4221511,1.39847111 12.0889956,3.51971556 C10.5291733,4.93838222 9.40028444,6.74318222 8.77379556,8.77482667 C6.88224,9.09162667 5.12721778,9.92967111 3.66410667,11.2398933 C1.30144,13.3558044 0.000106666667,16.4509156 0.000106666667,19.9549156 C0.000106666667,23.3586489 1.26304,26.26176 3.65237333,28.3502933 C6.11744,30.5053156 9.69788444,31.6445156 14.0068622,31.6445156 L19.3266844,31.6445156 C19.3529956,31.6445156 19.3793067,31.6438044 19.4052622,31.6434489 L19.4052622,31.6445156 L29.6203733,31.6445156 C37.2658844,31.6445156 42.4029511,27.1478044 42.4029511,20.4548267 C42.4029511,15.5542044 39.2349511,11.3821156 34.8399289,9.87242667 Z" id="Fill-1" fill="#2980FF" mask="url(#mask-2)"></path>
            </g>
            <g id="Group-6" transform="translate(0.000000, 0.125547)">
                <mask id="mask-4" fill="white">
                    <use xlink:href="#path-3"></use>
                </mask>
                <g id="Clip-5"></g>
                <path d="M30.3848178,27.9293156 C30.72224,27.65376 31.0479289,27.3646933 31.3597511,27.0610489 C34.3186844,24.1782044 35.9485511,20.2279822 35.9485511,15.9371378 C35.9485511,15.4902044 35.9307733,15.0486044 35.8980622,14.6119822 C37.6097067,15.98656 38.7083733,18.0939378 38.7083733,20.4548267 C38.7083733,24.86336 35.5400178,27.6775822 30.3848178,27.9293156 Z M14.0068622,27.9499378 C10.6056178,27.9499378 7.86570667,27.1264711 6.08401778,25.5687822 C4.52064,24.2023822 3.69468444,22.2614044 3.69468444,19.9549156 C3.69468444,17.5154489 4.55904,15.39776 6.12881778,13.9922489 C7.34268444,12.90496 8.87939556,12.3271822 10.5209956,12.3271822 C10.7801956,12.3271822 11.0425956,12.3414044 11.3064178,12.37056 C13.2559289,12.5863822 14.7713067,13.5115378 15.4639289,14.9099378 C15.9723733,15.9364267 15.94464,17.0574933 15.3871289,17.9851378 C14.9537067,18.7072711 14.36384,19.1520711 13.6345956,19.30816 C12.7922844,19.4884267 11.7689956,19.2704711 11.0276622,18.7538489 L9.17770667,21.95776 C10.7257956,22.9344711 12.6568178,23.29536 14.4072178,22.92096 C16.15264,22.5479822 17.5865956,21.4990933 18.5544178,19.8877156 C19.7547733,17.8887822 19.8372622,15.4151822 18.7745067,13.2701156 C17.6409956,10.98176 15.4507733,9.40487111 12.6809956,8.84842667 C13.12864,7.86460444 13.7636622,6.99064889 14.5746844,6.25322667 C16.2258844,4.75171556 18.5458844,3.92469333 21.1069511,3.92469333 C24.1579733,3.92469333 26.9757511,5.15562667 29.0408178,7.39029333 C31.11264,9.63313778 32.2539733,12.6685156 32.2539733,15.9371378 C32.2539733,19.2224711 31.0209067,22.2333156 28.7816178,24.4142933 C26.4075733,26.7271822 23.1378844,27.9499378 19.3266844,27.9499378 L14.0068622,27.9499378 Z M34.8399289,9.87242667 C32.6397511,4.15936 27.3871289,0.230115556 21.1069511,0.230115556 C17.62464,0.230115556 14.4221511,1.39847111 12.0889956,3.51971556 C10.5291733,4.93838222 9.40028444,6.74318222 8.77379556,8.77482667 C6.88224,9.09162667 5.12721778,9.92967111 3.66410667,11.2398933 C1.30144,13.3558044 0.000106666667,16.4509156 0.000106666667,19.9549156 C0.000106666667,23.3586489 1.26304,26.26176 3.65237333,28.3502933 C6.11744,30.5053156 9.69788444,31.6445156 14.0068622,31.6445156 L19.3266844,31.6445156 C19.3529956,31.6445156 19.3793067,31.6438044 19.4052622,31.6434489 L19.4052622,31.6445156 L29.6203733,31.6445156 C37.2658844,31.6445156 42.4029511,27.1478044 42.4029511,20.4548267 C42.4029511,15.5542044 39.2349511,11.3821156 34.8399289,9.87242667 Z" id="Fill-4" fill="#2980FF" mask="url(#mask-4)"></path>
            </g>
            <mask id="mask-6" fill="white">
                <use xlink:href="#path-5"></use>
            </mask>
            <g id="Clip-8"></g>
            <polygon id="Fill-7" fill="#000000" mask="url(#mask-6)" points="146.7104 27.6299022 147.260089 27.6299022 147.260089 5.18865778 146.7104 5.18865778"></polygon>
            <polygon id="Fill-9" fill="#000000" mask="url(#mask-6)" points="55.6558222 24.25248 65.6501333 24.25248 65.6501333 22.4192356 55.6558222 22.4192356"></polygon>
            <path d="M48.8467556,19.0271644 C48.8467556,22.3597867 48.5772444,24.8906311 48.0225778,27.1324089 C47.9635556,27.3393422 48.0268444,27.3951644 48.1352889,27.3951644 L49.9738667,27.3951644 C50.5875556,24.3156978 50.6672,21.76032 50.6778667,19.9068089 L53.2467556,19.9068089 L53.2467556,25.6056533 L51.4227556,25.6056533 C51.3331556,25.6056533 51.2645333,25.6636089 51.3114667,25.7898311 L51.8142222,27.4385422 L55.0764444,27.4385422 L55.0764444,6.03587556 L48.8467556,6.03587556 L48.8467556,19.0271644 Z M50.68,18.2570311 L53.2471111,18.2570311 L53.2471111,13.8705422 L50.68,13.8705422 L50.68,18.2570311 Z M50.6796444,12.22112 L53.2467556,12.22112 L53.2467556,7.86876444 L50.6796444,7.86876444 L50.6796444,12.22112 Z" id="Fill-10" fill="#000000" mask="url(#mask-6)"></path>
            <path d="M66.35744,13.4658489 L68.8185956,13.4658489 L68.8185956,11.8164267 L61.6481067,11.8164267 C61.8642844,11.2891378 62.0594844,10.7234489 62.2365511,10.1115378 L68.3684622,10.1115378 L68.3684622,8.46211556 L66.5725511,8.46211556 C66.8715733,7.44238222 67.2242844,6.23918222 67.2449067,6.16984889 C67.2804622,6.04753778 67.2161067,6.00060444 67.1375289,6.00060444 L65.57664,6.00060444 L64.85344,8.46211556 L62.6479289,8.46211556 C62.8541511,7.50851556 63.0329956,6.45180444 63.19584,5.26673778 C63.2146844,5.12949333 63.1403733,5.10140444 63.0500622,5.10140444 L61.2729956,5.10140444 C61.0923733,6.36149333 60.90144,7.44700444 60.6585956,8.46211556 L59.57664,8.46211556 L58.85344,6.00060444 L57.2925511,6.00060444 C57.2136178,6.00060444 57.1496178,6.04753778 57.1858844,6.16984889 C57.2057956,6.23918222 57.5592178,7.44238222 57.85824,8.46211556 L56.1081956,8.46211556 L56.1081956,10.1115378 L60.1938844,10.1115378 C60.0274844,10.6331378 59.7835733,11.24576 59.52224,11.8164267 L55.6591289,11.8164267 L55.6591289,13.4658489 L58.5615289,13.4658489 C57.39104,15.12736 56.1409067,15.8918044 55.6420622,16.1965156 L55.6420622,18.0838044 C55.6420622,18.1787378 55.7170844,18.2800711 56.0153956,18.1108267 C56.5576178,17.80256 57.1361067,17.4548267 57.7227733,17.02176 L64.5497956,17.02176 L64.49184,19.49216 L59.1019733,19.49216 L59.1841067,18.0151822 C59.1841067,17.9508267 59.13824,17.9028267 59.0721067,17.9028267 L57.3483733,17.9028267 L57.1748622,21.0302933 C57.1748622,21.0935822 57.2217956,21.1415822 57.2868622,21.1415822 L66.5860622,21.1415822 L66.5860622,25.6023822 L62.3947733,25.6023822 C62.30624,25.6023822 62.2376178,25.6599822 62.2845511,25.78656 L62.78624,27.4352711 L68.6017067,27.4352711 L68.6017067,19.49216 L66.3257956,19.49216 L66.4008178,16.2839822 C67.2523733,17.0758044 68.1156622,17.6653156 68.9010844,18.1108267 C69.1993956,18.2800711 69.2744178,18.1787378 69.2744178,18.0838044 L69.2744178,16.1965156 C68.7762844,15.8918044 67.5272178,15.1252267 66.35744,13.4658489 Z M64.1138844,13.4658489 C64.5522844,14.1879822 65.0251733,14.8180267 65.5133511,15.3719822 L59.5133511,15.3719822 C59.9794844,14.8343822 60.4306844,14.2071822 60.85024,13.4658489 L64.1138844,13.4658489 Z" id="Fill-11" fill="#000000" mask="url(#mask-6)"></path>
            <path d="M90.7943822,5.98976 L78.12736,5.98976 L78.12736,8.00718222 L81.9410489,8.00718222 L81.9410489,14.5053156 L77.57056,14.5053156 L77.57056,16.5031822 L81.9410489,16.5031822 L81.9410489,27.5453156 L83.9566933,27.5453156 L83.9566933,16.5031822 L88.7776711,16.5031822 L88.7776711,27.3095822 L92.58496,27.3095822 L92.58496,25.2932267 L90.7943822,25.2932267 L90.7943822,5.98976 Z M83.9566933,14.5053156 L88.7780267,14.5053156 L88.7780267,8.00718222 L83.9566933,8.00718222 L83.9566933,14.5053156 Z" id="Fill-12" fill="#000000" mask="url(#mask-6)"></path>
            <path d="M79.4052267,21.1448533 C79.3707378,21.1711644 77.6615822,22.4664533 76.00576,23.7208533 L76.00576,11.80512 L71.2957156,11.80512 L71.2957156,13.8214756 L74.00256,13.8214756 L74.00256,25.2383644 C73.3582933,25.7276089 72.9198933,26.0582756 72.9198933,26.0582756 L74.0263822,27.5199644 L79.5869156,23.3069867 L79.5869156,21.2308978 C79.5869156,21.1313422 79.4774044,21.0897422 79.4052267,21.1448533" id="Fill-13" fill="#000000" mask="url(#mask-6)"></path>
            <path d="M74.2690133,10.0002133 L76.4727467,10.0002133 C76.5701689,10.0002133 76.6099911,9.89461333 76.5666133,9.82848 C76.5267911,9.76696889 73.7872356,5.58385778 73.7872356,5.58385778 L71.5835022,5.58385778 C71.5003022,5.58385778 71.4398578,5.67950222 71.48608,5.75025778 C71.5319467,5.82065778 74.2690133,10.0002133 74.2690133,10.0002133" id="Fill-14" fill="#000000" mask="url(#mask-6)"></path>
            <polygon id="Fill-15" fill="#000000" mask="url(#mask-6)" points="120.358044 8.49141333 136.279822 8.49141333 136.279822 6.47399111 120.358044 6.47399111"></polygon>
            <path d="M126.133013,16.11584 L138.522347,16.11584 L138.522347,14.0984178 L118.115947,14.0984178 L118.115947,16.11584 L123.777458,16.11584 C122.608036,19.1860622 119.67328,26.8916622 119.653369,26.9471289 C119.621369,27.0367289 119.67968,27.1028622 119.757191,27.1028622 L137.358613,27.1028622 C137.441458,27.1028622 137.489458,27.0207289 137.459591,26.9428622 C137.441102,26.8945067 134.835236,20.0433067 134.835236,20.0433067 L132.644302,20.0433067 C132.561102,20.0433067 132.51168,20.1236622 132.539058,20.1965511 C132.566791,20.26944 134.396124,25.08544 134.396124,25.08544 L122.725724,25.08544 L126.133013,16.11584 Z" id="Fill-16" fill="#000000" mask="url(#mask-6)"></path>
            <polygon id="Fill-17" fill="#000000" mask="url(#mask-6)" points="107.973262 6.47552 106.230684 6.47552 106.230684 11.1489422 105.03104 11.1489422 105.03104 5.12227556 103.288818 5.12227556 103.288818 11.1489422 102.089173 11.1489422 102.089173 6.47552 100.346596 6.47552 100.346596 12.7994311 107.973262 12.7994311"></polygon>
            <path d="M99.7927467,11.5392356 L97.9698133,11.5392356 C97.2466133,13.1986133 96.0473244,15.6288356 94.4757689,18.3346133 C94.4277689,18.4171022 94.4914133,18.5067022 94.5717689,18.5067022 L96.4921244,18.5067022 C96.6866133,18.1635911 96.8747022,17.8258133 97.0563911,17.4937244 L97.0563911,27.5538133 L98.8907022,27.5538133 L98.8907022,13.9282133 C99.3013689,13.0706133 99.6395022,12.3150578 99.8955022,11.6985244 C99.9285689,11.6195911 99.8691911,11.5392356 99.7927467,11.5392356" id="Fill-18" fill="#000000" mask="url(#mask-6)"></path>
            <polygon id="Fill-19" fill="#000000" mask="url(#mask-6)" points="100.325333 15.7433244 107.977244 15.7433244 107.977244 14.09248 100.325333 14.09248"></polygon>
            <path d="M107.916302,22.06304 L107.916302,17.13184 L100.744391,17.13184 L100.744391,19.8472178 C100.744391,21.7345067 100.653013,23.8212622 99.6425244,26.7588622 C99.61728,26.8324622 99.6681244,26.9003733 99.7502578,26.9003733 L101.529102,26.9003733 C102.48768,23.9400178 102.578702,21.7945956 102.578702,19.8472178 L102.578702,18.7826844 L106.082347,18.7826844 L106.082347,23.5279289 L105.312213,24.14304 L106.342613,25.43264 L109.609102,22.8235733 L109.609102,20.9444622 C109.609102,20.8477511 109.496391,20.8008178 109.424213,20.8587733 C109.338524,20.92704 107.916302,22.06304 107.916302,22.06304" id="Fill-20" fill="#000000" mask="url(#mask-6)"></path>
            <path d="M111.138738,9.52849778 L113.481849,9.52849778 L113.471893,9.76636444 C113.344249,12.8536533 113.19776,16.3498311 112.149582,19.4876089 C111.187804,16.4330311 111.140871,12.9617422 111.138738,9.52849778 M113.179982,21.9249422 C114.961316,18.1233422 115.145493,13.6877867 115.304427,9.84209778 L115.317582,9.52849778 L116.066027,9.52849778 L116.066027,7.87765333 L110.820516,7.87765333 C110.857138,7.75925333 111.350649,6.15640889 111.593138,5.38627556 C111.617671,5.30840889 111.560782,5.23694222 111.487538,5.23694222 L109.717227,5.23694222 C109.556871,5.74965333 108.753671,8.35836444 108.430827,9.39160889 C108.408427,9.46272 108.476693,9.52849778 108.539627,9.52849778 L109.304782,9.52849778 C109.307271,13.6728533 109.377316,18.1130311 111.109938,21.89472 C110.387449,23.2092089 109.428871,24.4063644 108.153493,25.4164978 L108.153493,27.4584533 C108.153493,27.5487644 108.254116,27.5999644 108.330916,27.5494756 C109.967893,26.47392 111.205938,25.1853867 112.14816,23.7638756 C113.100338,25.1960533 114.369316,26.4934756 116.066382,27.5910756 C116.153493,27.6472533 116.240249,27.57472 116.240249,27.4989867 L116.240249,25.47232 C114.898027,24.4440533 113.908871,23.2454756 113.179982,21.9249422" id="Fill-21" fill="#000000" mask="url(#mask-6)"></path>
            <path d="M96.7389867,12.0354489 C98.2664533,9.41144889 99.4127644,7.07936 100.087609,5.50709333 C100.120676,5.42958222 100.064853,5.34567111 99.9848533,5.34567111 L97.95392,5.34567111 C97.2054756,7.00291556 96.0285867,9.31367111 94.49792,11.86336 C94.4495644,11.9437156 94.5032533,12.0354489 94.5900089,12.0354489 L96.7389867,12.0354489 Z" id="Fill-22" fill="#000000" mask="url(#mask-6)"></path>
            <path d="M166.941867,19.1037511 C166.759467,19.2932622 166.576356,19.47744 166.392889,19.6545067 C165.908267,19.1865956 165.452089,18.6884622 165.0208,18.1711289 C163.262222,16.0424178 162.016356,13.52544 161.334044,10.6660622 L171.456,10.6660622 C170.671289,13.9549511 169.140978,16.7908622 166.941867,19.1037511 Z M176.9664,10.6660622 L176.9664,8.62161778 L176.962133,8.62161778 L176.962133,8.62090667 L167.5104,8.62090667 L167.5104,5.21041778 L167.507911,5.21041778 L165.279644,5.21041778 L165.277867,5.21041778 L165.277867,8.62090667 L155.824,8.62090667 L155.824,8.62161778 L155.824,10.6649956 L155.824,10.6660622 L159.043556,10.6660622 C159.420444,12.4292622 159.986844,14.0811733 160.736356,15.6168178 C161.732267,17.6591289 163.0528,19.4959289 164.6912,21.1105067 C162.270578,22.9458844 159.294933,24.3112178 155.824,25.1481956 L155.824,27.2925511 C155.824,27.2929067 155.824,27.2932622 155.824,27.2936178 C155.824,27.3565511 155.874844,27.4073956 155.937778,27.4073956 C155.945956,27.4073956 155.9552,27.4063289 155.963022,27.4045511 C159.808356,26.5266844 163.124978,25.0561067 165.8624,23.01984 C166.038756,22.8921956 166.216178,22.7577956 166.395022,22.6159289 C166.530133,22.7229511 166.663467,22.8239289 166.796089,22.9217067 C169.558044,25.0081067 172.916978,26.5128178 176.8224,27.4045511 C176.829867,27.4063289 176.839822,27.4073956 176.848,27.4073956 C176.910933,27.4073956 176.961778,27.3565511 176.961778,27.2936178 L176.962133,27.2936178 L176.962133,25.1549511 L176.9664,25.1521067 C176.964978,25.1517511 176.963556,25.1513956 176.962133,25.15104 L176.962133,25.1481956 C173.492267,24.3115733 170.517333,22.9469511 168.097067,21.1122844 C170.968889,18.2827733 172.868267,14.7741511 173.746133,10.6660622 L176.9664,10.6660622 Z" id="Fill-23" fill="#000000" mask="url(#mask-6)"></path>
            <path d="M187.351431,18.5678222 C187.320853,18.4967111 185.479431,14.1781333 185.479431,14.1781333 L184.408498,14.1781333 L184.408498,11.2167111 L187.299876,11.2167111 L187.299876,9.38417778 L184.408498,9.38417778 L184.408498,5.21031111 L182.392142,5.21031111 L182.392142,9.38417778 L179.367787,9.38417778 L179.367787,11.2167111 L182.292942,11.2167111 C181.957298,14.3409778 180.779342,17.2551111 178.817387,20.4736 L178.817387,23.2949333 L178.817387,23.7219556 C178.817387,23.8272 178.955342,23.8780444 179.023253,23.7852444 C180.418809,21.8812444 181.630898,19.7130667 182.392142,17.5882667 L182.392142,27.4108444 L184.408498,27.4108444 L184.408498,16.3345778 L185.427164,18.7292444 L187.250098,18.7292444 C187.32832,18.7292444 187.38592,18.6488889 187.351431,18.5678222" id="Fill-24" fill="#000000" mask="url(#mask-6)"></path>
            <polygon id="Fill-25" fill="#000000" mask="url(#mask-6)" points="194.601067 5.21038222 192.4016 5.21038222 192.4016 13.6925156 187.370133 13.6925156 187.370133 15.6352711 197.467911 15.6352711 197.467911 19.1360711 187.919822 19.1360711 187.919822 21.0788267 197.467911 21.0788267 197.467911 24.87296 187.113422 24.87296 187.113422 26.8157156 199.667378 26.8157156 199.667378 13.6925156 194.601067 13.6925156"></polygon>
            <path d="M188.835484,11.9039289 L190.994062,11.9039289 C191.072284,11.9039289 191.12704,11.8274844 191.102862,11.7535289 L189.441707,6.74161778 L187.285618,6.74161778 C187.206329,6.74161778 187.150151,6.81912889 187.175396,6.89450667 L188.835484,11.9039289 Z" id="Fill-26" fill="#000000" mask="url(#mask-6)"></path>
            <path d="M199.717049,6.74151111 L197.561316,6.74151111 L195.90016,11.7537778 C195.875627,11.8277333 195.930738,11.9038222 196.008604,11.9038222 L198.167182,11.9038222 L199.827627,6.8944 C199.852516,6.81902222 199.796338,6.74151111 199.717049,6.74151111" id="Fill-27" fill="#000000" mask="url(#mask-6)"></path>
        </g>
    </g>
</svg>