<?xml version="1.0" encoding="UTF-8"?>
<svg width="19px" height="16px" viewBox="0 0 19 16" version="1.1" xmlns="http://www.w3.org/2000/svg" xmlns:xlink="http://www.w3.org/1999/xlink">
    <!-- Generator: Sketch 63.1 (92452) - https://sketch.com -->
    <title>图标</title>
    <desc>Created with Sketch.</desc>
    <g id="Page-7" stroke="none" stroke-width="1" fill="none" fill-rule="evenodd">
        <g id="01-copy备份-41" transform="translate(-1465.000000, -164.000000)">
            <g id="创建按钮" transform="translate(1443.000000, 154.000000)">
                <g id="Bar/Action-Bar/↳Elements/icons/evert" transform="translate(22.000000, 8.000000)">
                    <g id="ic_revert_nor">
                        <rect id="bg" x="0" y="0" width="20" height="20"></rect>
                        <path d="M10.459706,2 C14.877984,2 18.459706,5.581722 18.459706,10 C18.459706,14.418278 14.877984,18 10.459706,18 C8.41968997,18 6.55801696,17.2364228 5.14490245,15.9794839 L6.47386378,14.4848446 C7.53366796,15.4274109 8.9298193,16 10.459706,16 C13.7734145,16 16.459706,13.3137085 16.459706,10 C16.459706,6.6862915 13.7734145,4 10.459706,4 C7.48664282,4 5.01863148,6.16238395 4.5426323,9.00019152 L6.41939356,9 C6.69553594,9 6.91939356,9.22385763 6.91939356,9.5 C6.91939356,9.61353575 6.88075319,9.723691 6.80982797,9.81234752 L3.85014039,13.511957 C3.67763562,13.727588 3.36298943,13.7625486 3.14735846,13.5900439 C3.11852611,13.566978 3.09233746,13.5407893 3.06927158,13.511957 L0.109584007,9.81234752 C-0.0629207673,9.59671656 -0.0279600799,9.28207037 0.187670888,9.1095656 C0.276327412,9.03864038 0.386482664,9 0.500018411,9 L2.52159367,9.00004872 C3.01367012,5.05371356 6.38007155,2 10.459706,2 Z" id="ic" fill="#687176"></path>
                    </g>
                </g>
            </g>
        </g>
    </g>
</svg>