<?xml version="1.0" encoding="UTF-8"?>
<svg width="70px" height="59px" viewBox="0 0 70 59" version="1.1" xmlns="http://www.w3.org/2000/svg" xmlns:xlink="http://www.w3.org/1999/xlink">
    <!-- Generator: Sketch 55.2 (78181) - https://sketchapp.com -->
    <title>文档图标复制</title>
    <desc>Created with Sketch.</desc>
    <defs>
        <path d="M67.9219932,8.0432242 C68.3656145,8.48684551 68.64,9.09970266 68.64,9.77664596 L68.64,53.7085714 C68.64,55.062458 67.542458,56.16 66.1885714,56.16 L2.45142857,56.16 C1.09754196,56.16 -5.00162774e-14,55.062458 -4.97379915e-14,53.7085714 L-4.97379915e-14,23.8093789 L0,2.45142857 C2.78285919e-16,1.09754196 1.09754196,-1.75148635e-14 2.45142857,-1.77635684e-14 L26.1869054,-1.77635684e-14 C26.7173028,-1.78610008e-14 27.2333937,0.172023913 27.6577188,0.490252884 L36.1177277,6.83496451 C36.5420527,7.15319348 37.0581436,7.32521739 37.588541,7.32521739 L66.1885714,7.32521739 C66.8655147,7.32521739 67.4783719,7.59960288 67.9219932,8.0432242 Z" id="path-1"></path>
        <filter x="-1.5%" y="-1.8%" width="102.9%" height="107.1%" filterUnits="objectBoundingBox" id="filter-2">
            <feOffset dx="0" dy="2" in="SourceAlpha" result="shadowOffsetOuter1"></feOffset>
            <feColorMatrix values="0 0 0 0 0.369121612   0 0 0 0 0.596129815   0 0 0 0 0.981233016  0 0 0 1 0" type="matrix" in="shadowOffsetOuter1"></feColorMatrix>
        </filter>
    </defs>
    <g id="页面1" stroke="none" stroke-width="1" fill="none" fill-rule="evenodd">
        <g id="资源" transform="translate(-178.000000, -229.000000)">
            <g id="Content/Grid/↳File-icons/folder_large复制" transform="translate(161.000000, 217.000000)">
                <g id="ic_folder_large">
                    <rect id="Rectangle-7" x="0" y="0" width="104" height="83.2"></rect>
                    <g id="ico_folder-copy-2" transform="translate(17.680000, 12.480000)">
                        <g id="Combined-Shape">
                            <use fill="black" fill-opacity="1" filter="url(#filter-2)" xlink:href="#path-1"></use>
                            <use fill="#68A0FF" fill-rule="evenodd" xlink:href="#path-1"></use>
                        </g>
                        <path d="M38.0999577,32.4324324 C38.0868182,32.4498575 38.0731363,32.4674891 38.0589118,32.4853271 C37.3337154,33.3947501 37.397764,34.7652098 38.6644137,35.7370636 C39.9220948,36.7020361 41.5013509,37.7567232 42.6942048,38.4989205 C44.1855587,39.4268454 44.7507317,40.5614813 44.7187192,41.5321478 C44.6923573,42.3314812 44.6923573,43.0474196 44.7187192,43.679963 L34.32,43.679963 L34.32,38.9693824 L34.32,43.679963 L23.9212808,43.679963 C23.9476427,43.0474196 23.9476427,42.3314812 23.9212808,41.5321478 C23.8892683,40.5614813 24.4544413,39.4268454 25.9457952,38.4989205 C27.1386491,37.7567232 28.7179052,36.7020361 29.9755863,35.7370636 C31.242236,34.7652098 31.3062846,33.3947501 30.5810882,32.4853271 C30.5668637,32.4674891 30.5531818,32.4498575 30.5400423,32.4324324 C29.4697394,31.2050318 28.8013733,29.4623935 28.8013733,27.5294009 C28.8013733,23.8128554 31.2721466,20.8 34.32,20.8 C37.3678534,20.8 39.8386267,23.8128554 39.8386267,27.5294009 C39.8386267,29.4623935 39.1702606,31.2050318 38.0999577,32.4324324 Z" id="Combined-Shape" fill="#FFFFFF"></path>
                    </g>
                </g>
            </g>
        </g>
    </g>
</svg>