<?xml version="1.0" encoding="UTF-8"?>
<svg width="28px" height="23px" viewBox="0 0 28 23" version="1.1" xmlns="http://www.w3.org/2000/svg" xmlns:xlink="http://www.w3.org/1999/xlink">
    <!-- Generator: Sketch 55.2 (78181) - https://sketchapp.com -->
    <title>folder</title>
    <desc>Created with Sketch.</desc>
    <g id="页面1" stroke="none" stroke-width="1" fill="none" fill-rule="evenodd">
        <g id="Artboard-Copy-18复制-5" transform="translate(-340.000000, -200.000000)">
            <g id="Group-4-Copy-2">
                <g id="Group-4">
                    <g id="Content" transform="translate(284.000000, 184.000000)">
                        <g id="Content/Lists/Files/Normal-Copy-7">
                            <g id="Content/List/↳Elements/fileicons/folder_mini复制" transform="translate(50.000000, 8.000000)">
                                <g id="icon-file-m">
                                    <rect id="bg" x="0" y="0" width="40" height="40"></rect>
                                    <g id="Group-4" transform="translate(6.000000, 8.000000)">
                                        <path d="M28,12.5 L28,22 C28,22.5522847 27.5522847,23 27,23 L1,23 C0.44771525,23 -1.63357194e-13,22.5522847 -1.63424829e-13,22 L-1.63424829e-13,9.75 L-1.13686838e-13,1 C-1.13754473e-13,0.44771525 0.44771525,-1.67739369e-14 1,-1.687539e-14 L10.6812471,-1.687539e-14 C10.8982604,-1.64711655e-14 11.1093842,0.0705951286 11.2827498,0.201129231 L14.7328752,2.79887077 C14.9062408,2.92940487 15.1173646,3 15.3343779,3 L27,3 C27.5522847,3 28,3.44771525 28,4 L28,12.5 Z" id="Combined-Shape" fill="#68A0FF"></path>
                                        <path d="M15.8172874,12.5925246 C15.8109703,12.6009021 15.8043924,12.6093788 15.7975538,12.6179548 C15.4489016,13.0551781 15.4796942,13.714054 16.0886604,14.1812922 C16.6933148,14.645222 17.4525726,15.1522839 18.02606,15.5091101 C18.7430571,15.9552286 19.0147749,16.5007275 18.9993842,16.9673949 C18.9867102,17.3516904 18.9867102,17.6958921 18.9993842,18 L14,18 L14,15.7352941 L14,18 L9.00061576,18 C9.01328976,17.6958921 9.01328976,17.3516904 9.00061576,16.9673949 C8.98522514,16.5007275 9.25694293,15.9552286 9.97394001,15.5091101 C10.5474274,15.1522839 11.3066852,14.645222 11.9113396,14.1812922 C12.5203058,13.714054 12.5510984,13.0551781 12.2024462,12.6179548 C12.1956076,12.6093788 12.1890297,12.6009021 12.1827126,12.5925246 C11.6681439,12.0024272 11.3468141,11.164619 11.3468141,10.2352941 C11.3468141,8.44849052 12.5346859,7 14,7 C15.4653141,7 16.6531859,8.44849052 16.6531859,10.2352941 C16.6531859,11.164619 16.3318561,12.0024272 15.8172874,12.5925246 Z" id="Combined-Shape" fill="#FFFFFF"></path>
                                    </g>
                                </g>
                            </g>
                        </g>
                    </g>
                </g>
            </g>
        </g>
    </g>
</svg>