<svg xmlns="http://www.w3.org/2000/svg" width="72" height="72" viewBox="0 0 72 72">
    <path fill="#2980ff" fill-rule="evenodd" d="M35 13v46h-2v-2H15a1 1 0 01-1-1V16a1 1 0 011-1h18v-2h2zm22 2a1 1 0 011 1v40a1 1 0 01-1 1H37V15h20zm-6.59 19.313a1.483 1.483 0 00-1.96.122l-9 8.955a1.539 1.539 0 00-.021 2.153c.58.6 1.53.61 2.121.022l8.072-8.031 3.967 3.078c.658.51 1.6.383 2.103-.286a1.538 1.538 0 00-.281-2.134zm-23 0a1.483 1.483 0 00-1.96.122l-9 8.955a1.539 1.539 0 00-.021 2.153c.58.6 1.53.61 2.121.022l8.072-8.031 3.967 3.078c.658.51 1.6.383 2.103-.286a1.538 1.538 0 00-.281-2.134zM51.5 22a2.5 2.5 0 100 5 2.5 2.5 0 000-5zm-31 0a2.5 2.5 0 100 5 2.5 2.5 0 000-5z"/>
</svg>
