<?xml version="1.0" encoding="UTF-8"?>
<svg width="14px" height="14px" viewBox="0 0 14 14" version="1.1" xmlns="http://www.w3.org/2000/svg" xmlns:xlink="http://www.w3.org/1999/xlink">
    <!-- Generator: Sketch 55.2 (78181) - https://sketchapp.com -->
    <title>ic_stared</title>
    <desc>Created with Sketch.</desc>
    <g id="页面1" stroke="none" stroke-width="1" fill="none" fill-rule="evenodd">
        <g id="资源" transform="translate(-276.000000, -138.000000)">
            <g id="ic_stared" transform="translate(275.000000, 137.000000)">
                <g>
                    <rect id="Rectangle" x="0" y="0" width="16" height="16"></rect>
                    <path d="M8.49755747,1.93549792 L9.94192611,5.69413671 L13.8454345,5.98123108 C14.120833,6.00148603 14.3276678,6.24116052 14.3074128,6.51655905 C14.2978256,6.64691297 14.2375754,6.76833028 14.1395661,6.85480704 L11.1230407,9.51638395 L12.0668778,13.4970529 C12.1305862,13.7657458 11.9644135,14.0352103 11.6957207,14.0989187 C11.5618472,14.1306608 11.4208097,14.1058354 11.3058212,14.0302888 L8.0308322,11.8786442 L4.75584324,14.0302888 C4.52505367,14.1819159 4.21504368,14.117742 4.06341657,13.8869525 C3.9878699,13.7719639 3.96304454,13.6309264 3.99478663,13.4970529 L4.93862373,9.51638395 L1.9220983,6.85480704 C1.71503414,6.67210771 1.69528255,6.35614197 1.87798188,6.14907782 C1.96445865,6.05106849 2.08587595,5.99081832 2.21622988,5.98123108 L6.11973829,5.69413671 L7.56410692,1.93549792 C7.66316088,1.67773267 7.95242,1.54907174 8.21018525,1.6481257 C8.34234148,1.69891066 8.44677251,1.80334169 8.49755747,1.93549792 Z" id="Fill-1" fill="#FFDB20"></path>
                    <path d="M8.49755747,1.93549792 L9.94192611,5.69413671 L13.8454345,5.98123108 C14.120833,6.00148603 14.3276678,6.24116052 14.3074128,6.51655905 C14.2978256,6.64691297 14.2375754,6.76833028 14.1395661,6.85480704 L11.1230407,9.51638395 L12.0668778,13.4970529 C12.1305862,13.7657458 11.9644135,14.0352103 11.6957207,14.0989187 C11.5618472,14.1306608 11.4208097,14.1058354 11.3058212,14.0302888 L8.0308322,11.8786442 L4.75584324,14.0302888 C4.52505367,14.1819159 4.21504368,14.117742 4.06341657,13.8869525 C3.9878699,13.7719639 3.96304454,13.6309264 3.99478663,13.4970529 L4.93862373,9.51638395 L1.9220983,6.85480704 C1.71503414,6.67210771 1.69528255,6.35614197 1.87798188,6.14907782 C1.96445865,6.05106849 2.08587595,5.99081832 2.21622988,5.98123108 L6.11973829,5.69413671 L7.56410692,1.93549792 C7.66316088,1.67773267 7.95242,1.54907174 8.21018525,1.6481257 C8.34234148,1.69891066 8.44677251,1.80334169 8.49755747,1.93549792 Z" id="Fill-1-Copy" fill="#FFD520"></path>
                    <path d="M8.49755747,1.93549792 L9.94192611,5.69413671 L13.8454345,5.98123108 C14.120833,6.00148603 14.3276678,6.24116052 14.3074128,6.51655905 C14.2978256,6.64691297 14.2375754,6.76833028 14.1395661,6.85480704 L11.1230407,9.51638395 L12.0668778,13.4970529 C12.1305862,13.7657458 11.9644135,14.0352103 11.6957207,14.0989187 C11.5618472,14.1306608 11.4208097,14.1058354 11.3058212,14.0302888 L8.0308322,11.8786442 L4.75584324,14.0302888 C4.52505367,14.1819159 4.21504368,14.117742 4.06341657,13.8869525 C3.9878699,13.7719639 3.96304454,13.6309264 3.99478663,13.4970529 L4.93862373,9.51638395 L1.9220983,6.85480704 C1.71503414,6.67210771 1.69528255,6.35614197 1.87798188,6.14907782 C1.96445865,6.05106849 2.08587595,5.99081832 2.21622988,5.98123108 L6.11973829,5.69413671 L7.56410692,1.93549792 C7.66316088,1.67773267 7.95242,1.54907174 8.21018525,1.6481257 C8.34234148,1.69891066 8.44677251,1.80334169 8.49755747,1.93549792 Z" id="Fill-1-Copy-2" fill="#FFC115"></path>
                </g>
            </g>
        </g>
    </g>
</svg>